{"title":"The Enigma of Kaspar Hauser - Jeder fÃƒÂ¼r sich und Gott gegen all","uid":5852232,"size":4499865600,"categoryP":"video","categoryS":"movies_dvdr","magnet":"?xt=urn:btih:bd2c2575dc743ede9e72f2e3cea35b91a139dd52&amp;dn=The+Enigma+of+Kaspar+Hauser+-+Jeder+f%C3%83%C2%BCr+sich+und+Gott+gegen+all&amp;tr=udp%3A%2F%2Ftracker.openbittorrent.com%3A80&amp;tr=udp%3A%2F%2Fopen.demonii.com%3A1337&amp;tr=udp%3A%2F%2Ftracker.coppersurfer.tk%3A6969&amp;tr=udp%3A%2F%2Fexodus.desync.com%3A6969","seeders":0,"leechers":0,"uploader":"albedo040","files":1,"time":1285434246,"description":"The Enigma of Kaspar Hauser - Jeder fÃƒÂ¼r sich und Gott gegen alle*1974*[DVD5][PAL][GER, POL]\n\nGeneral information:\nCountry: West Germany \nRelease: 1 November 1974\nGenre: Biography, Drama, History \nDirector: Werner Herzog\nScreenplay: Jakob Wassermann, Werner Herzog  \nOriginal Music: Tomaso Albinoni , Johann Pachelbel \nCinematography by: JÃƒÂ¶rg Schmidt-Reitwein , Klaus Wyborny\nDuration: 1h 45mn\nLanguage: German, Polish\nSubtitles: Polish\nRating: 8.1/10 - 1154 votes \n\nCast:\nBruno S.  ...  Kaspar Hauser  \nWalter Ladengast  ...  Professor Daumer  \nBrigitte Mira  ...  Kathe, Servant  \nWilly Semmelrogge  ...  Circus director  \nMichael Kroecher  ...  Lord Stanhope  \nHans MusÃƒÂ¤us  ...  Unknown Man  \nMarcus Weller    \nGloria Doer  ...  Frau Hiltel  \nVolker Prechtel  ...  Hiltel the prison guard  \nHerbert Achternbusch  ...  Bavarian Chicken Hypnotizer  \nWolfgang Bauer    \nWilhelm Bayer  ...  Taunting Farmboy  \nFranz Brumbach    \nJohannes Buzalski    \nHelmut DÃƒÂ¶ring  ...  Little King  \n\nPlot:\nHerzog's film is based upon the true and mysterious story of Kaspar Hauser, a young man who suddenly appeared in Nuremberg in 1828, barely able to speak or walk, and bearing a strange note; he later explained that he had been held captive in a dungeon of some sort for his entire life that he could remember...\n\nSpecifications:\nGeneral\nFormat                           : MPEG-PS\nOverall bit rate                 : 5 618 Kbps\n\nVideo\nFormat                           : MPEG Video\nFormat version                   : Version 2\nFormat settings, BVOP            : Yes\nFormat settings, Matrix          : Default\nFormat settings, GOP             : M=3, N=12\nBit rate mode                    : Variable\nBit rate                         : 4 802 Kbps\nNominal bit rate                 : 6 000 Kbps\nWidth                            : 720 pixels\nHeight                           : 576 pixels\nDisplay aspect ratio             : 16:9\nFrame rate                       : 25.000 fps\nStandard                         : PAL\n\nAudio 1\nFormat                           : AC-3\nFormat/Info                      : Audio Coding 3\nMode extension                   : CM (complete main)\nBit rate mode                    : Constant\nBit rate                         : 448 Kbps\nChannel(s)                       : 6 channels\nChannel positions                : Front: L C R, Side: L R, LFE\nSampling rate                    : 48.0 KHz\nBit depth                        : 16 bits\nVideo delay                      : -80ms\nStream size                      : 81.6 MiB (8%)\n\nAudio 2\nFormat                           : AC-3\nFormat/Info                      : Audio Coding 3\nMode extension                   : CM (complete main)\nBit rate mode                    : Constant\nBit rate                         : 256 Kbps\nChannel(s)                       : 2 channels\nChannel positions                : Front: L R\nSampling rate                    : 48.0 KHz\nBit depth                        : 16 bits\nVideo delay                      : -80ms\nStream size                      : 46.7 MiB (5%)\n\nText\nFormat                           : RLE\nFormat/Info                      : Run-length encoding\n","torrent":{"xt":"urn:btih:bd2c2575dc743ede9e72f2e3cea35b91a139dd52","amp;dn":"The+Enigma+of+Kaspar+Hauser+-+Jeder+f%C3%83%C2%BCr+sich+und+Gott+gegen+all","amp;tr":["udp%3A%2F%2Ftracker.openbittorrent.com%3A80","udp%3A%2F%2Fopen.demonii.com%3A1337","udp%3A%2F%2Ftracker.coppersurfer.tk%3A6969","udp%3A%2F%2Fexodus.desync.com%3A6969"],"infoHash":"bd2c2575dc743ede9e72f2e3cea35b91a139dd52","infoHashBuffer":{"type":"Buffer","data":[189,44,37,117,220,116,62,222,158,114,242,227,206,163,91,145,161,57,221,82]},"announce":[],"urlList":[]}}